<svg width="440" height="220" viewBox="0 0 440 220" fill="none" xmlns="http://www.w3.org/2000/svg">
<g clip-path="url(#clip0_34_981)">
<rect width="440" height="220" fill="white"/>
<rect width="440" height="220" fill="#E2C5FF"/>
<ellipse cx="201.27" cy="185.786" rx="36.6829" ry="7.2447" fill="#A74FFF"/>
<ellipse cx="237.178" cy="192.937" rx="16.7151" ry="6.10835" fill="#A74FFF"/>
<ellipse cx="175.594" cy="195.813" rx="16.7151" ry="6.10835" fill="#A74FFF"/>
<ellipse cx="155.227" cy="188.145" rx="16.7151" ry="6.10835" fill="#A74FFF"/>
<ellipse cx="263.264" cy="185.756" rx="16.7151" ry="5.8374" fill="#A74FFF"/>
<rect x="143.665" y="157.74" width="18.1159" height="31.6895" fill="white"/>
<rect x="163.555" y="180.02" width="18.1159" height="16.5987" fill="white"/>
<rect x="227.055" y="175.487" width="18.1159" height="18.4896" fill="white"/>
<rect x="253.174" y="155.876" width="18.1159" height="30.672" fill="white"/>
<path d="M188.826 184.034L192.491 186.837C198.356 186.837 201.978 177.782 203.056 173.254C202.625 176.847 203.401 184.034 209.956 184.034C218.149 184.034 219.443 168.079 219.443 159.239C223.755 151.305 222.102 132.791 220.736 124.526L233.888 112.236L239.063 100.809L235.613 96.4968H226.989L180.848 125.82L177.614 140.266L175.674 159.239L180.848 165.923L186.239 163.551L188.826 184.034Z" fill="white"/>
<path d="M203.242 172.837C219.473 150.846 215.386 127.46 211.314 118.515L216.364 112.998L221.206 129.793C221.004 135.896 220.479 149.191 219.995 153.548C219.39 158.995 215.459 164.765 203.242 172.837Z" fill="#D9D9D9"/>
<path d="M199.964 59.3723C186.496 39.2573 180.237 23.5452 185.115 19.2286C192.712 12.4948 224.568 36.0199 256.251 71.8039C287.935 107.588 307.445 142.034 299.848 148.768C292.942 154.854 266.136 136.12 237.604 105.905" fill="white"/>
<path d="M199.964 59.3723C186.496 39.2573 180.237 23.5452 185.115 19.2286C192.712 12.4948 224.568 36.0199 256.251 71.8039C287.935 107.588 307.445 142.034 299.848 148.768C292.942 154.854 266.136 136.12 237.604 105.905" stroke="black" stroke-width="3.45322" stroke-miterlimit="10"/>
<path d="M256.813 99.5591C254.569 101.458 251.677 102.624 248.526 102.624C241.49 102.624 235.792 96.926 235.792 89.8901C235.792 82.8542 237.432 82.6815 240.065 80.3506" fill="#D9D9D9"/>
<path d="M256.813 99.5591C254.569 101.458 251.677 102.624 248.526 102.624C241.49 102.624 235.792 96.926 235.792 89.8901C235.792 82.8542 237.432 82.6815 240.065 80.3506" stroke="black" stroke-width="3.45322" stroke-miterlimit="10"/>
<path d="M201.605 59.7178C195.433 48.9697 193.102 41.0273 195.994 38.4805C201.692 33.4302 225.605 51.0848 249.389 77.9336C273.173 104.782 287.806 130.638 282.109 135.689C277.145 140.092 258.411 127.271 237.95 106.164" stroke="black" stroke-width="3.45322" stroke-miterlimit="10"/>
<path d="M206.138 61.3579C205.663 59.2428 205.836 57.6889 206.742 56.8687C210.713 53.3292 227.418 65.6744 244.037 84.4513C260.656 103.185 270.886 121.271 266.871 124.811C263.548 127.746 251.332 119.631 237.692 105.904" stroke="black" stroke-width="3.45322" stroke-miterlimit="10"/>
<path d="M145.966 100.034C149.462 118.163 170.181 129.429 192.239 125.156C214.296 120.926 229.361 102.753 225.865 84.6238C222.368 66.4944 201.649 55.2283 179.591 59.5016C171.304 61.0988 165.261 47.4585 159.563 52.2067C150.066 60.1491 143.807 88.6814 145.966 99.9907V100.034Z" fill="white"/>
<path d="M164.817 60.9269C161.75 56.7095 155.232 62.6841 152.356 66.1986C152.356 59.6254 160.348 50.875 162.016 50.875C163.685 50.875 174.842 59.738 177.031 59.738C179.221 59.738 189.127 58.3825 198.094 59.1124C207.061 59.8423 211.544 63.0835 217.055 70.2723C211.544 65.959 196.687 62.6043 186.383 64.2816C176.079 65.959 168.651 66.1986 164.817 60.9269Z" fill="#D9D9D9"/>
<path d="M210.038 183.272C212.294 182.074 211.605 173.605 210.924 169.236L219.43 160.085L217.754 174.907C216.929 177.217 214.266 181.984 210.038 183.272C209.876 183.358 209.699 183.407 209.506 183.413C209.686 183.373 209.863 183.325 210.038 183.272Z" fill="#D9D9D9"/>
<path d="M145.966 100.034C149.462 118.163 170.181 129.429 192.239 125.156C214.296 120.926 229.361 102.753 225.865 84.6238C222.368 66.4944 201.649 55.2283 179.591 59.5016C171.304 61.0988 165.261 47.4585 159.563 52.2067C150.066 60.1491 143.807 88.6814 145.966 99.9907V100.034Z" stroke="black" stroke-width="3.45322" stroke-miterlimit="10"/>
<path d="M159.519 101.89C162.195 115.876 175.965 121.66 193.317 118.293C210.669 114.969 222.54 100.898 219.864 86.9552C217.187 72.9696 209.029 66.2358 191.72 69.6027C174.367 72.9264 156.842 87.948 159.562 101.89H159.519Z" stroke="black" stroke-width="3.45322" stroke-miterlimit="10"/>
<path d="M180.453 126.149C176.136 141.386 171.949 161.717 180.755 165.084C189.561 168.451 197.244 136.552 197.244 136.552" stroke="black" stroke-width="3.45322" stroke-miterlimit="10"/>
<path d="M234.713 95.5627C232.113 112.499 217.988 119.175 217.988 119.175L219.394 124.024L230.567 114.045L238.157 101.325C238.157 101.325 238.157 97.1791 234.713 95.5627Z" fill="#D9D9D9"/>
<path d="M187.015 162.494C187.015 171.127 186.367 186.71 192.928 186.71C199.489 186.71 203.504 172.768 203.504 172.768C203.504 172.768 234.108 160.768 216.324 112.854" stroke="black" stroke-width="3.45322" stroke-miterlimit="10"/>
<path d="M219.044 156.408C219.044 156.408 221.116 183.429 208.944 183.429C204.282 183.429 203.505 172.724 203.505 172.724" stroke="black" stroke-width="3.45322" stroke-miterlimit="10"/>
<path d="M220.338 123.905C220.338 123.905 240.194 111.085 238.424 98.5666C237.302 92.7825 226.122 97.0558 226.122 97.0558" stroke="black" stroke-width="3.45322" stroke-miterlimit="10"/>
<path d="M221.806 140.351L214.813 127.703C214.813 127.703 206.525 145.358 208.986 152.351C211.274 158.825 216.712 157.919 220.468 151.444" stroke="black" stroke-width="3.45322" stroke-miterlimit="10"/>
<path d="M201.691 99.1276L180.713 91.919L231.044 56.7825L231.907 59.6745C235.317 71.286 234.41 80.1349 229.144 86.0917C221.806 94.3794 208.252 94.1636 202.598 93.6456C202.555 95.1132 202.339 97.0557 201.691 99.2139V99.1276Z" fill="black"/>
<path d="M177.347 94.293L200.397 102.581C199.577 104.221 198.455 105.904 196.987 107.415L171.261 98.5663L177.347 94.293Z" fill="black"/>
<path d="M166.771 101.674L192.497 110.911C185.634 115.012 179.202 116.307 173.764 116.307C164.181 116.307 157.62 112.25 157.188 111.991L154.469 110.264L166.771 101.674Z" fill="black"/>
<path d="M161.678 184.724C162.455 185.199 162.887 185.717 162.887 186.278C162.887 188.091 158.355 189.515 152.786 189.515C147.218 189.515 142.686 188.048 142.686 186.278C142.686 184.508 143.247 185.026 144.283 184.508" stroke="black" stroke-width="3.45322" stroke-miterlimit="10"/>
<path d="M161.678 180.235C162.455 180.71 162.887 181.228 162.887 181.789C162.887 183.602 158.355 185.027 152.786 185.027C147.218 185.027 142.686 183.559 142.686 181.789C142.686 180.02 143.247 180.538 144.283 180.02" stroke="black" stroke-width="3.45322" stroke-miterlimit="10"/>
<path d="M161.678 175.789C162.455 176.264 162.887 176.782 162.887 177.343C162.887 179.156 158.355 180.58 152.786 180.58C147.218 180.58 142.686 179.113 142.686 177.343C142.686 175.573 143.247 176.091 144.283 175.573" stroke="black" stroke-width="3.45322" stroke-miterlimit="10"/>
<path d="M161.678 171.3C162.455 171.775 162.887 172.293 162.887 172.854C162.887 174.667 158.355 176.091 152.786 176.091C147.218 176.091 142.686 174.624 142.686 172.854C142.686 171.084 143.247 171.602 144.283 171.084" stroke="black" stroke-width="3.45322" stroke-miterlimit="10"/>
<path d="M161.678 166.854C162.455 167.329 162.887 167.847 162.887 168.408C162.887 170.221 158.355 171.646 152.786 171.646C147.218 171.646 142.686 170.178 142.686 168.408C142.686 166.638 143.247 167.156 144.283 166.638" stroke="black" stroke-width="3.45322" stroke-miterlimit="10"/>
<path d="M161.678 162.365C162.455 162.84 162.887 163.358 162.887 163.919C162.887 165.732 158.355 167.156 152.786 167.156C147.218 167.156 142.686 165.689 142.686 163.919C142.686 162.149 143.247 162.667 144.283 162.149" stroke="black" stroke-width="3.45322" stroke-miterlimit="10"/>
<path d="M152.741 162.839C158.105 162.839 162.454 161.544 162.454 159.947C162.454 158.35 158.105 157.055 152.741 157.055C147.378 157.055 143.029 158.35 143.029 159.947C143.029 161.544 147.378 162.839 152.741 162.839Z" stroke="black" stroke-width="3.45322" stroke-miterlimit="10"/>
<path d="M181.749 193.875C182.526 194.35 182.957 194.868 182.957 195.429C182.957 197.242 178.425 198.666 172.857 198.666C167.288 198.666 162.756 197.199 162.756 195.429C162.756 193.659 163.317 194.177 164.353 193.659" stroke="black" stroke-width="3.45322" stroke-miterlimit="10"/>
<path d="M181.749 189.084C182.526 189.559 182.957 190.077 182.957 190.638C182.957 192.451 178.425 193.875 172.857 193.875C167.288 193.875 162.756 192.408 162.756 190.638C162.756 188.868 163.317 189.386 164.353 188.868" stroke="black" stroke-width="3.45322" stroke-miterlimit="10"/>
<path d="M181.749 184.638C182.526 185.113 182.957 185.631 182.957 186.192C182.957 188.005 178.425 189.429 172.857 189.429C167.288 189.429 162.756 187.962 162.756 186.192C162.756 184.422 163.317 184.94 164.353 184.422" stroke="black" stroke-width="3.45322" stroke-miterlimit="10"/>
<path d="M172.771 185.07C178.135 185.07 182.483 183.775 182.483 182.177C182.483 180.58 178.135 179.285 172.771 179.285C167.407 179.285 163.059 180.58 163.059 182.177C163.059 183.775 167.407 185.07 172.771 185.07Z" stroke="black" stroke-width="3.45322" stroke-miterlimit="10"/>
<path d="M271.187 182.394C271.964 182.868 272.396 183.386 272.396 183.948C272.396 185.76 267.863 187.185 262.295 187.185C256.727 187.185 252.194 185.717 252.194 183.948C252.194 182.178 252.755 182.696 253.791 182.178" stroke="black" stroke-width="3.45322" stroke-miterlimit="10"/>
<path d="M271.187 178.028C271.964 178.503 272.396 179.021 272.396 179.582C272.396 181.395 267.863 182.82 262.295 182.82C256.727 182.82 252.194 181.352 252.194 179.582C252.194 177.813 252.755 178.33 253.791 177.812" stroke="black" stroke-width="3.45322" stroke-miterlimit="10"/>
<path d="M271.187 173.458C271.964 173.933 272.396 174.451 272.396 175.012C272.396 176.825 267.863 178.25 262.295 178.25C256.727 178.25 252.194 176.782 252.194 175.012C252.194 173.242 252.755 173.76 253.791 173.242" stroke="black" stroke-width="3.45322" stroke-miterlimit="10"/>
<path d="M271.187 169.012C271.964 169.487 272.396 170.005 272.396 170.566C272.396 172.379 267.863 173.804 262.295 173.804C256.727 173.804 252.194 172.336 252.194 170.566C252.194 168.796 252.755 169.314 253.791 168.796" stroke="black" stroke-width="3.45322" stroke-miterlimit="10"/>
<path d="M271.187 164.523C271.964 164.998 272.396 165.516 272.396 166.077C272.396 167.89 267.863 169.314 262.295 169.314C256.727 169.314 252.194 167.847 252.194 166.077C252.194 164.307 252.755 164.825 253.791 164.307" stroke="black" stroke-width="3.45322" stroke-miterlimit="10"/>
<path d="M271.187 160.077C271.964 160.552 272.396 161.07 272.396 161.631C272.396 163.444 267.863 164.869 262.295 164.869C256.727 164.869 252.194 163.401 252.194 161.631C252.194 159.861 252.755 160.379 253.791 159.861" stroke="black" stroke-width="3.45322" stroke-miterlimit="10"/>
<path d="M262.252 160.509C267.616 160.509 271.964 159.214 271.964 157.617C271.964 156.019 267.616 154.725 262.252 154.725C256.888 154.725 252.54 156.019 252.54 157.617C252.54 159.214 256.888 160.509 262.252 160.509Z" stroke="black" stroke-width="3.45322" stroke-miterlimit="10"/>
<path d="M245.547 190.076C246.324 190.551 246.756 191.069 246.756 191.63C246.756 193.443 242.224 194.868 236.655 194.868C231.087 194.868 226.555 193.4 226.555 191.63C226.555 189.86 227.116 190.378 228.152 189.86" stroke="black" stroke-width="3.45322" stroke-miterlimit="10"/>
<path d="M245.547 185.285C246.324 185.76 246.756 186.278 246.756 186.839C246.756 188.652 242.224 190.077 236.655 190.077C231.087 190.077 226.555 188.609 226.555 186.839C226.555 185.07 227.116 185.588 228.152 185.07" stroke="black" stroke-width="3.45322" stroke-miterlimit="10"/>
<path d="M245.547 180.839C246.324 181.314 246.756 181.832 246.756 182.393C246.756 184.206 242.224 185.631 236.655 185.631C231.087 185.631 226.555 184.163 226.555 182.393C226.555 180.624 227.116 181.142 228.152 180.624" stroke="black" stroke-width="3.45322" stroke-miterlimit="10"/>
<path d="M236.613 181.271C241.976 181.271 246.325 179.976 246.325 178.379C246.325 176.782 241.976 175.487 236.613 175.487C231.249 175.487 226.9 176.782 226.9 178.379C226.9 179.976 231.249 181.271 236.613 181.271Z" stroke="black" stroke-width="3.45322" stroke-miterlimit="10"/>
<path d="M292.511 68.955C295.777 68.955 298.425 66.3073 298.425 63.0413C298.425 59.7753 295.777 57.1277 292.511 57.1277C289.245 57.1277 286.598 59.7753 286.598 63.0413C286.598 66.3073 289.245 68.955 292.511 68.955Z" fill="white" stroke="black" stroke-width="3.45322" stroke-miterlimit="10"/>
<path d="M274.396 47.9622C275.358 47.9622 276.137 47.1828 276.137 46.2213C276.137 45.2599 275.358 44.4805 274.396 44.4805C273.435 44.4805 272.655 45.2599 272.655 46.2213C272.655 47.1828 273.435 47.9622 274.396 47.9622Z" fill="black"/>
<path d="M299.432 88.451C300.394 88.451 301.173 87.6715 301.173 86.7101C301.173 85.7486 300.394 84.9692 299.432 84.9692C298.471 84.9692 297.691 85.7486 297.691 86.7101C297.691 87.6715 298.471 88.451 299.432 88.451Z" fill="black"/>
<path d="M273.533 26.0772C274.494 26.0772 275.274 25.2978 275.274 24.3363C275.274 23.3749 274.494 22.5955 273.533 22.5955C272.571 22.5955 271.792 23.3749 271.792 24.3363C271.792 25.2978 272.571 26.0772 273.533 26.0772Z" fill="black"/>
<path d="M243.533 40.451C244.494 40.451 245.274 39.6716 245.274 38.7101C245.274 37.7487 244.494 36.9692 243.533 36.9692C242.571 36.9692 241.792 37.7487 241.792 38.7101C241.792 39.6716 242.571 40.451 243.533 40.451Z" fill="black"/>
<path d="M171.663 41.3145C172.624 41.3145 173.404 40.5351 173.404 39.5736C173.404 38.6122 172.624 37.8328 171.663 37.8328C170.701 37.8328 169.922 38.6122 169.922 39.5736C169.922 40.5351 170.701 41.3145 171.663 41.3145Z" fill="black"/>
</g>
<defs>
<clipPath id="clip0_34_981">
<rect width="440" height="220" fill="white"/>
</clipPath>
</defs>
</svg>
