<svg width="1920" height="1080" viewBox="0 0 1920 1080" fill="none" xmlns="http://www.w3.org/2000/svg">
<rect width="1920" height="1080" fill="#F0E2FF"/>
<path d="M1083.69 113.14C1128.24 109.867 1199.5 204.327 1221.63 239.019C1257.48 295.211 1289.41 359.845 1272.76 428.095C1258.2 487.792 1217.51 536.482 1165.71 567.974C1165.88 568.123 1166.05 568.278 1166.23 568.428C1214.7 620.246 1252.55 691.608 1258.06 763.076C1259.32 779.372 1255.46 801.82 1244.08 812.91C1220.33 836.042 1194.55 821.487 1174.99 802.286C1180.46 844.29 1185.3 908.337 1169.42 949.065C1164.84 960.827 1155.16 974.536 1142.34 978.498C1086.79 995.659 1061.17 918.146 1047.96 881.659C1040.59 881.69 1032.11 882.742 1024.22 882.872C1007.18 883.152 993.628 881.355 976.94 879.016C975.397 885.497 965.259 912.604 962.186 919.073C952.383 939.686 936.753 966.811 914.3 974.86C905.967 977.845 893.131 978.206 885.281 974.586C879.442 971.146 874.527 967.924 870.271 962.538C836.798 920.198 845.371 800.626 851.796 747.607C853.139 736.523 854.73 725.47 856.57 714.454C858.049 705.883 859.897 697.467 860.897 688.834C854.436 687.26 846.945 686.184 840.242 684.648C818.059 679.566 796.023 673.856 774.159 667.531C722.583 652.186 647.165 621.198 609.527 581.968C581.262 546.639 607.297 523.128 643.31 518.693C697.285 512.037 734.98 533.167 784.159 546.552C807.169 552.592 830.596 556.914 854.246 559.489C849.43 553.139 842.5 548.978 836.737 543.218C820.134 526.617 804.444 506.329 794.776 485C774.308 439.844 773.986 389.167 792.728 343.231C821.097 273.703 888.693 222.897 960.202 203.831C987.01 196.683 1014.28 194.549 1039.7 184.174C1058.93 176.609 1071.8 162.785 1070.97 141.241C1070.44 127.383 1069.55 119.198 1083.69 113.14Z" fill="#000101"/>
<path d="M975.954 587.833C938.223 582.534 902.284 568.383 871.077 546.526C833.956 520.72 808.621 481.213 800.656 436.712C794.517 400.721 802.5 363.949 819.738 332.539C854.615 268.987 920.937 229.118 991.155 216.907C1022.78 211.407 1060.97 203.955 1081.06 176.683C1088.97 165.944 1092.41 145.977 1089.98 132.931C1125.36 145.812 1165.9 192.489 1186.8 223.589C1191.67 230.159 1196.38 236.855 1200.91 243.671C1202.93 246.948 1205.05 250.172 1207.24 253.342L1209.69 257.368C1212.89 261.865 1215.26 265.937 1218.05 270.67C1218.6 271.61 1219.96 273.834 1220.28 274.729C1221.32 276.755 1223.87 281.285 1224.62 283.065C1226.78 287.972 1229.53 291.909 1231.64 296.736C1232.67 298.421 1233.92 300.055 1234.16 301.948C1235.75 305.35 1240.3 313.859 1240.84 316.947C1242.96 321.588 1244.2 325.107 1245.87 329.958C1248.67 335.378 1250.03 340.747 1251.68 346.609C1253.21 351.983 1254.14 356.136 1255.24 361.63C1256.62 370.123 1259.3 400.153 1256.25 407.141C1255.77 412.734 1253.42 426.399 1251.53 431.447C1249.91 438.499 1247.37 444.257 1244.55 450.923C1243.87 452.792 1243.1 455.125 1242.36 456.921C1241.81 458.024 1240.27 461.352 1239.64 462.142C1236.8 467.696 1233.83 472.623 1230.77 478.029L1227.88 482.106C1225.9 485.034 1223.52 488.416 1221.74 491.392L1219.93 493.364C1214.13 500.804 1210.35 505.774 1203.67 512.428C1199.64 516.994 1195.25 521.217 1190.52 525.049C1188.7 526.535 1186.72 528.239 1184.86 529.633C1183.41 531.231 1182.86 532.015 1180.96 533.116C1178.4 535.106 1174.19 538.558 1171.58 540.095L1167.8 542.881L1160.86 547.608C1157.17 549.984 1153.55 552.354 1149.75 554.556C1147.56 555.794 1144.91 557.386 1142.66 558.413C1140.86 559.283 1134.5 562.536 1132.98 563.046C1129.69 564.657 1126.33 566.387 1122.98 567.842C1118.14 569.963 1113.8 571.866 1108.81 573.658L1099.48 576.948C1095.58 578.167 1082.37 582.546 1078.91 583.05C1073.25 584.462 1068.41 585.569 1062.69 586.62C1029.15 591.596 1009.57 591.926 975.954 587.833Z" fill="#000101"/>
<path d="M975.954 587.833C938.223 582.534 902.284 568.383 871.077 546.526C833.956 520.72 808.621 481.213 800.656 436.712C794.517 400.721 802.5 363.949 819.738 332.539C854.615 268.987 920.937 229.118 991.155 216.907C1022.78 211.407 1060.97 203.955 1081.06 176.683C1088.97 165.944 1092.41 145.977 1089.98 132.931C1125.36 145.812 1165.9 192.489 1186.8 223.589C1191.67 230.159 1196.38 236.855 1200.91 243.671C1202.93 246.948 1205.05 250.172 1207.24 253.342L1209.69 257.368C1212.89 261.865 1215.26 265.937 1218.05 270.67C1213.21 270.936 1212.29 271.838 1210.56 276.442L1209.81 276.48L1209.5 276.157L1208.28 275.449C1212.5 291.813 1214.95 311.926 1193.54 317.638C1184.81 319.967 1174.48 318.717 1165.64 317.822C1161.83 317.352 1157.63 316.294 1153.95 316.637C1153.52 317.657 1154.27 319.795 1154.47 321.126C1142.06 313.243 1133.03 308.129 1119.77 301.685C1004.84 245.861 785.212 274.286 825.135 449.356C847.412 547.049 952.081 589.892 1045.28 576.681C1057.8 574.41 1064.28 573.614 1077.49 570.386C1082.61 572.065 1096.81 574.752 1099.48 576.948C1095.58 578.167 1082.37 582.546 1078.91 583.05C1073.25 584.462 1068.41 585.569 1062.69 586.62C1029.15 591.596 1009.57 591.926 975.954 587.833Z" fill="#FEFEFD"/>
<path d="M1045.27 576.68C1057.8 574.41 1064.28 573.614 1077.49 570.386C1082.61 572.065 1096.81 574.752 1099.47 576.948C1095.58 578.167 1082.37 582.546 1078.91 583.05C1071.16 581.551 1050.57 580.568 1045.27 576.68Z" fill="#D7D6D2"/>
<path d="M1201.27 256.828C1201.74 254.921 1201.74 255.009 1202.8 253.338C1205.14 252.562 1204.49 252.829 1207.24 253.343L1209.69 257.368C1212.88 261.865 1215.26 265.937 1218.05 270.67C1213.21 270.936 1212.29 271.838 1210.56 276.442L1209.81 276.48L1209.5 276.157L1208.28 275.45C1205.91 270.458 1204.2 263.031 1201.27 256.828Z" fill="#DBDAD4"/>
<path d="M1186.8 223.589C1191.67 230.159 1196.38 236.855 1200.91 243.671C1202.93 246.948 1205.05 250.172 1207.24 253.342C1204.49 252.829 1205.14 252.562 1202.8 253.338C1201.74 255.008 1201.75 254.92 1201.27 256.827C1200.41 255.504 1200.49 255.57 1199.89 254.096C1194.92 243.186 1189.85 234.633 1183.27 224.72L1183.41 224.031C1184.37 223.942 1185.12 223.866 1186.08 223.711L1186.8 223.589Z" fill="#DBDAD4"/>
<path d="M806.01 447.057C808.336 448.191 807.468 447.383 808.816 449.453C809.022 451.937 808.476 452.511 807.316 454.705C803.821 452.976 805.238 450.206 806.01 447.057Z" fill="#F0F0E9"/>
<path d="M1218.05 270.67C1218.6 271.61 1219.96 273.834 1220.28 274.729C1221.32 276.756 1223.87 281.286 1224.62 283.066C1226.78 287.972 1229.53 291.909 1231.65 296.736C1232.67 298.422 1233.92 300.056 1234.16 301.948C1235.75 305.35 1240.3 313.859 1240.84 316.948C1242.96 321.588 1244.2 325.107 1245.87 329.959C1248.67 335.378 1250.03 340.747 1251.68 346.609C1253.21 351.984 1254.14 356.136 1255.24 361.631C1256.62 370.123 1259.31 400.153 1256.25 407.142C1255.77 412.735 1253.42 426.4 1251.53 431.447C1249.91 438.499 1247.38 444.258 1244.55 450.923C1243.87 452.792 1243.1 455.125 1242.36 456.921C1241.81 458.024 1240.27 461.352 1239.64 462.142C1236.8 467.696 1233.83 472.623 1230.77 478.029L1227.88 482.107C1225.9 485.034 1223.52 488.416 1221.74 491.393L1219.93 493.364C1214.13 500.804 1210.35 505.775 1203.67 512.429C1199.64 516.994 1195.25 521.217 1190.52 525.049C1188.7 526.536 1186.72 528.24 1184.86 529.633C1183.41 531.232 1182.86 532.015 1180.96 533.116C1178.4 535.107 1174.19 538.559 1171.59 540.095L1167.8 542.882L1160.86 547.609C1157.17 549.985 1153.55 552.355 1149.75 554.557C1147.56 555.794 1144.91 557.387 1142.66 558.413L1139.24 555.346C1137.39 553.294 1130.76 550.545 1128.01 549.786L1134.08 546.464L1145.31 539.112L1150.87 535.474C1164.83 524.632 1178.66 512.273 1188.02 497.081C1189.89 494.051 1192.05 491.185 1194.18 488.325C1195.75 484.549 1196.47 483.365 1198.62 479.952C1200.43 475.63 1202.17 471.475 1204.13 467.227C1205.47 464.448 1205.67 462.714 1206.28 459.722C1206.44 457.303 1207.75 453.144 1208.44 450.66C1212.64 429.479 1212.99 418.072 1208.41 397.143C1207.35 392.883 1206.21 388.645 1204.98 384.431C1203.72 381.071 1202.41 377.729 1201.06 374.406C1197.57 368.017 1193.14 361.085 1189.28 354.849L1185.24 349.885L1181.56 345.365C1178.02 342.411 1174.59 338.559 1171.4 335.154L1163.32 327.983L1159.8 325.186C1157.62 323.689 1156.46 322.851 1154.47 321.126C1154.27 319.795 1153.52 317.657 1153.95 316.637C1157.63 316.294 1161.83 317.353 1165.64 317.822C1174.48 318.717 1184.81 319.967 1193.54 317.638C1214.95 311.926 1212.5 291.814 1208.28 275.449L1209.5 276.157L1209.81 276.48L1210.56 276.442C1212.29 271.838 1213.21 270.936 1218.05 270.67Z" fill="#D7D6D2"/>
<path d="M1204.13 467.227C1205.47 464.448 1205.67 462.713 1206.28 459.722C1206.37 463.303 1207.4 469.243 1208.87 472.536L1209.53 472.465C1210.32 469.893 1210.21 469.503 1210.15 466.747C1210.48 469.194 1211.56 472.857 1209.18 474.217C1206.46 473.024 1205.03 469.891 1204.13 467.227Z" fill="#DBDAD4"/>
<path d="M1087.87 567.282C1093.87 565.522 1099.92 562.872 1105.73 560.49C1109.39 561.865 1114.94 562.835 1118.93 563.656L1122.98 567.842C1118.14 569.963 1113.8 571.867 1108.8 573.658L1099.47 576.948C1096.81 574.753 1082.61 572.066 1077.49 570.386L1087.87 567.282Z" fill="#D7D6D2"/>
<path d="M1113.21 557.23C1118.32 554.997 1123.09 552.391 1128.01 549.785C1130.76 550.544 1137.39 553.293 1139.24 555.346L1142.66 558.412C1140.86 559.283 1134.5 562.536 1132.98 563.046C1129.69 564.657 1126.33 566.386 1122.98 567.842L1118.93 563.656C1114.95 562.835 1109.39 561.864 1105.73 560.49C1108.11 559.37 1110.78 558.282 1113.21 557.23Z" fill="#D7D6D2"/>
<path d="M969.681 296.949C982.991 295.276 1012.05 294.683 1025.45 297.055C1063.22 298.22 1120.4 318.335 1149.44 342.467L1151.79 344.402C1157.33 348.708 1165.56 356.302 1169.41 362.168C1189.01 381.147 1197.3 426.054 1187.42 451.497L1186.81 454.289C1185.13 459.887 1183.79 464.832 1181.07 470.076C1180.66 470.882 1179.93 472.445 1179.49 473.15C1177.49 477.321 1175.89 479.742 1173.35 483.642C1172.01 485.833 1171.62 486.495 1169.93 488.379L1168.05 491.104C1165.63 494.459 1164.01 496.81 1161.13 499.797C1160.52 500.412 1158.31 502.717 1157.77 503.122C1155.19 505.698 1152.62 508.379 1149.87 510.749L1147.12 513.112C1144.35 515.457 1141.79 517.74 1138.78 519.78L1134.83 522.592C1131 524.874 1127.2 527.213 1123.42 529.602C1120.69 531.331 1119.1 532.345 1116.11 533.719C1113.34 535.15 1104.85 539.759 1102.42 540.169C1099.43 541.762 1098.4 542.191 1095.17 543.236C1090.99 544.766 1086.73 546.383 1082.48 547.695C1077.43 549.282 1065.41 553.256 1060.59 553.797C979.396 572.7 871.997 541.967 846.545 454.045C850.921 448.542 863.223 437.523 870.266 436.049C880.944 430.989 890.029 430.692 901.196 434.692C902.962 435.343 904.711 436.036 906.443 436.771C917.944 443.085 925.523 451.062 933.033 461.806C939.862 457.684 943.762 456.258 950.455 451.312C947.979 447.572 945.112 442.891 942.076 439.718L939.483 437.147C911.906 405.215 873.555 403.866 841.504 430.097L841.27 427.968C838.343 399.983 842.353 368.265 861.018 346.24C886.911 315.684 930.961 300.532 969.681 296.949Z" fill="#FEFEFD"/>
<path d="M1151.79 344.402C1157.32 348.708 1165.56 356.302 1169.41 362.168C1189.01 381.147 1197.3 426.054 1187.42 451.497L1186.81 454.289C1185.13 459.887 1183.79 464.832 1181.07 470.076C1180.66 470.882 1179.93 472.445 1179.49 473.15C1177.49 477.321 1175.89 479.742 1173.35 483.642C1172.01 485.833 1171.62 486.495 1169.93 488.379L1168.05 491.104C1165.63 494.459 1164 496.81 1161.13 499.797C1160.51 500.412 1158.31 502.717 1157.77 503.122C1155.19 505.698 1152.62 508.379 1149.87 510.749L1147.12 513.112C1144.35 515.457 1141.79 517.74 1138.78 519.78L1134.83 522.592C1130.99 524.874 1127.19 527.213 1123.42 529.602C1120.69 531.331 1119.1 532.345 1116.1 533.719C1113.29 532.158 1104.54 532.214 1100.8 532.077L1101.19 530.79C1108.57 525.938 1115 522.256 1122.19 516.795C1141.18 502.478 1155.91 483.27 1164.81 461.225C1177.73 428.621 1173.98 396.02 1160.36 364.245C1158.19 359.753 1156.95 356.352 1155.22 351.715C1154.62 350.134 1151.28 348.033 1150.57 345.74L1151.79 344.402Z" fill="#D7D6D2"/>
<path d="M1161.14 499.797C1160.25 497.816 1159.44 494.665 1160.38 492.632C1161.84 491.464 1162.68 491.589 1164.55 491.427L1165.25 491.373C1163.93 491.188 1163.36 491.117 1162.09 490.749C1163.06 489.587 1165.42 488.609 1166.91 487.844L1167.68 488.259L1168.06 491.104C1165.64 494.459 1164.01 496.81 1161.14 499.797Z" fill="#DBDAD4"/>
<path d="M1183.04 452.297C1183.08 449.973 1182.82 448.31 1184.08 446.429L1185.18 446.259C1187.23 448.545 1186.62 448.099 1187.42 451.497L1186.81 454.29C1185.81 454.454 1185.68 454.35 1184.66 454.255L1183.04 452.297Z" fill="#DBDAD4"/>
<path d="M1101.19 530.79L1100.8 532.078C1104.54 532.214 1113.29 532.158 1116.11 533.72C1113.35 535.15 1104.86 539.759 1102.42 540.17C1099.43 541.762 1098.4 542.191 1095.18 543.236C1090.99 544.766 1086.73 546.384 1082.48 547.696C1077.89 543.958 1077.52 544.406 1071.58 544.86C1073.61 543.728 1077.21 541.47 1079.3 541.14C1087.69 539.672 1093.72 534.821 1101.19 530.79Z" fill="#DBDAD4"/>
<path d="M969.684 296.949C982.994 295.276 1012.05 294.683 1025.45 297.055C1007.21 299.1 987.896 300.084 969.684 296.949Z" fill="#F0F0E9"/>
<path d="M1071.58 544.86C1077.52 544.406 1077.88 543.958 1082.48 547.696C1077.43 549.282 1065.41 553.257 1060.59 553.798C1059.68 553.132 1055.59 552.349 1054.17 551.982L1053.94 551.297C1057.27 549.668 1067.96 545.768 1071.58 544.86Z" fill="#DBDAD4"/>
<path d="M870.27 436.05C880.948 430.99 890.033 430.693 901.2 434.692C902.965 435.344 904.715 436.037 906.447 436.772C903.902 438.238 901.267 440.105 898.326 439.317C890.45 429.839 880.021 435.6 870.27 436.05Z" fill="#F0F0E9"/>
<path d="M939.484 437.148C942.134 436.255 942.806 435.755 945.362 436.423L946.046 437.207C944.79 439.176 944.74 438.724 942.078 439.719L939.484 437.148Z" fill="#F0F0E9"/>
<path d="M1052.45 424.845C1084.98 422.802 1107.63 440.524 1126.94 465.08C1121.24 469.76 1115.31 472.861 1108.9 476.426C1101.26 464.801 1089.67 454.042 1076.71 448.672C1048.89 438.641 1029.62 450.577 1010.08 469.635C1005.43 465.18 999.589 459.033 995.465 454.194C1013.49 438.819 1027.65 427.058 1052.45 424.845Z" fill="#000101"/>
<path d="M1078.4 352.486C1087.1 352.532 1098.59 356.947 1105.16 362.708C1110.69 367.564 1117.28 372.707 1109.95 379.284C1109.01 379.319 1106.47 379.418 1105.82 378.975C1099.73 374.763 1095.49 368.855 1088.29 366.034C1084.87 364.564 1078.94 365.005 1076.35 362.112C1073.06 358.461 1075.45 354.908 1078.4 352.486Z" fill="#000101"/>
<path d="M1009.13 509.679C1011.87 509.474 1013.38 510.282 1015.71 511.62C1020.37 519.382 1004.87 525.13 999.194 526.23C992.302 527.568 987.693 527.182 980.764 526.448C976.889 525.64 970.924 523.749 972.541 518.518C974.594 511.856 989.87 517.342 995.17 516.086C1000.8 514.755 1004.38 512.758 1009.13 509.679Z" fill="#000101"/>
<path d="M892.906 344.513C897.789 344.052 902.012 344.459 902.813 350.451C900.335 356.956 889.697 355.143 884.505 358.248C880.168 360.843 876.575 364.467 872.931 367.918C869.754 368.625 869.075 368.349 865.864 367.597C862.915 365.132 863.926 362.462 866.036 359.539C872.629 350.405 882.114 346.395 892.906 344.513Z" fill="#000101"/>
<path d="M876.113 406.263C880.113 405.645 894.544 405.423 898.049 406.869C894.053 407.439 879.345 407.977 876.113 406.263Z" fill="#D7D6D2"/>
<path d="M619.423 562.792C607.866 540.518 640.412 536.998 654.942 536.444C714.623 534.174 767.21 567.059 825.738 574.566C842.756 576.75 858.174 578.584 875.371 578.684C889.967 579.088 890.635 581.464 902.864 586.913C977.059 619.953 1059.39 617.111 1133.39 585.314C1139.21 582.603 1143.52 580.177 1149.04 577.011C1160.75 590.259 1173.27 604.049 1183.22 618.884C1213.3 663.748 1239.55 718.714 1239.09 773.718C1239 784.77 1235.22 796.595 1226.13 803.256C1179.89 823.888 1135.31 680.387 1114.68 674.447C1112.97 673.949 1111.55 674.21 1110.01 675.075C1107.54 676.481 1106.1 677.955 1105.45 680.76C1103.41 689.543 1112.87 701.441 1117.25 708.775C1128.2 728.716 1139.23 748.887 1150.07 768.829C1152.12 772.592 1154.7 797.223 1155.12 802.236C1158.83 846.087 1168.43 912.143 1145.36 951.702C1144 953.444 1142.91 954.961 1141.31 956.504C1129.69 965.15 1119.48 961.704 1108.86 953.581C1105.92 951.777 1104.92 950.035 1103.09 947.155C1089.58 938.472 1073.55 893.521 1067.66 877.461C1071.68 876.472 1079.46 875.414 1082.59 873.66C1085.12 872.248 1086.93 869.829 1087.58 867.011C1088.79 862.01 1085.59 855.131 1080.05 855.255C1070.28 855.541 1061.07 859.298 1051.28 860.866C1027.06 864.734 1001.75 863.789 977.718 859.081C963.898 856.369 951.905 851.735 938.682 847.511C936.088 846.684 932.325 850.136 930.434 851.623C926.839 864.735 933.37 866.52 944.74 870.332C949.001 871.757 953.423 873.156 957.696 874.562C952.055 894.932 939.64 922.269 927.343 939.393C914.319 957.524 892.356 968.223 880.518 941.209C867.364 911.198 865.974 877.193 865.833 844.843C865.454 797.111 870.475 751.351 877.909 704.384C880.267 687.67 886.734 670.684 887.787 653.902C888.284 645.99 879.808 645.175 874.114 646.233C871.109 648.684 871.219 648.995 869.513 652.378C868.7 655.973 866.451 667.63 864.285 669.763L862.847 670.174C857.013 668.146 852.075 668.028 846.188 666.541C843.435 665.645 832.093 663.456 828.563 662.604C823.651 661.901 809.563 657.802 803.908 656.353C798.244 655.103 793.775 653.697 788.278 651.955C785.021 651.495 773.664 647.701 770.43 646.581C767.001 645.667 764.104 644.554 760.8 643.322C755.051 641.294 749.598 639.441 744.024 636.928C739.843 635.597 736.984 634.421 732.942 632.686C705.279 623.008 632.823 589.513 619.423 562.792Z" fill="#FEFEFD"/>
<path d="M1117.25 708.774C1128.2 728.716 1139.23 748.887 1150.07 768.828C1152.12 772.591 1154.69 797.222 1155.12 802.236C1158.82 846.087 1168.43 912.143 1145.36 951.702C1144 953.443 1142.91 954.961 1141.31 956.504C1129.69 965.149 1119.48 961.704 1108.86 953.58C1105.92 951.776 1104.92 950.035 1103.09 947.155C1103.52 947.161 1114.2 948.156 1115.01 948.244C1115.38 948.194 1115.78 948.2 1116.14 948.094C1118.36 947.454 1120.42 944.723 1121.69 942.963C1147.31 907.59 1131.34 796.768 1124.17 754.864C1122.57 745.646 1120.78 736.466 1118.79 727.322C1117.75 722.67 1116.45 717.29 1115.45 712.562C1115.1 710.883 1116.22 710.018 1117.25 708.774Z" fill="#D7D6D2"/>
<path d="M1103.09 947.155C1103.52 947.161 1114.2 948.157 1115.01 948.244L1111.61 949.139L1111.28 949.842C1113.54 950.856 1116.66 951.403 1119.14 951.951C1115.22 953.145 1111.77 952.125 1108.86 953.58C1105.92 951.777 1104.92 950.035 1103.09 947.155Z" fill="#F0F0E9"/>
<path d="M1141.31 956.504C1139.66 948.723 1138.89 953.338 1132.69 951.143C1134.05 948.561 1136.24 951.951 1139.79 949.867C1141.21 947.908 1140.73 946.291 1141.31 943.529C1143.13 945.445 1142.53 948.642 1145.36 951.702C1144.01 953.444 1142.91 954.962 1141.31 956.504Z" fill="#F0F0E9"/>
<path d="M619.422 562.791L619.891 559.513C623.799 558.269 634.188 571.978 639.701 573.402C642.88 575.368 647.095 577.98 650.259 579.703C697.261 605.236 748.787 624.07 800.882 635.975C819.338 640.193 837.377 643.072 856.205 644.683C860.638 645.063 870.785 645.063 874.113 646.232C871.107 648.683 871.217 648.994 869.512 652.378C868.698 655.973 866.45 667.629 864.283 669.762L862.845 670.173C857.011 668.145 852.074 668.027 846.187 666.54C843.433 665.645 832.091 663.455 828.561 662.603C823.65 661.9 809.562 657.801 803.906 656.352C798.242 655.102 793.773 653.696 788.277 651.955C785.019 651.494 773.662 647.7 770.428 646.581C767 645.666 764.103 644.553 760.798 643.321C755.049 641.294 749.596 639.44 744.022 636.927C739.842 635.596 736.982 634.42 732.941 632.685C705.277 623.007 632.821 589.512 619.422 562.791Z" fill="#D7D6D2"/>
<path d="M862.642 662.013C862.538 658.611 862.02 655.29 863.73 652.397C866.088 651.701 864.883 651.782 867.482 652.447C868.806 652.055 868.13 652.086 869.513 652.379C868.699 655.974 866.451 667.63 864.284 669.763L862.846 670.174C857.013 668.146 852.075 668.028 846.188 666.541C843.434 665.646 832.092 663.456 828.562 662.604C833.531 660.9 856.353 661.746 862.642 662.013Z" fill="#F0F0E9"/>
<path d="M846.188 666.541C849.625 664.756 858.721 663.269 862.088 665.353C862.376 666.958 862.628 668.563 862.846 670.174C857.012 668.146 852.075 668.028 846.188 666.541Z" fill="#DBDAD4"/>
<path d="M788.277 651.955C790.91 651.638 790.113 651.8 792.378 651.93C803.622 652.571 814.034 650.493 825.31 652.447C818.409 654.002 806.76 652.988 803.907 656.353C798.243 655.102 793.774 653.697 788.277 651.955Z" fill="#F0F0E9"/>
<path d="M760.801 643.321C763.317 642.444 780.034 641.157 782.068 642.388L782.163 643.527C778.592 646.724 772.852 641.86 770.431 646.581C767.002 645.666 764.105 644.553 760.801 643.321Z" fill="#DBDAD4"/>
<path d="M774.945 642.569C778.071 642.016 779.181 641.338 781.311 643.844C777.901 644.267 777.548 644.249 774.945 642.569Z" fill="#F0F0E9"/>
<path d="M732.941 632.686C736.857 632.63 750.576 631.343 752.957 632.487C750.45 635.342 745.825 634.198 743.804 636.101L744.237 636.592L744.023 636.928C739.842 635.597 736.983 634.422 732.941 632.686Z" fill="#F0F0E9"/>
<path d="M1133.39 585.314C1139.21 582.602 1143.52 580.177 1149.04 577.011C1160.75 590.259 1173.27 604.049 1183.22 618.884C1213.3 663.748 1239.56 718.714 1239.1 773.718C1239 784.77 1235.22 796.595 1226.13 803.256C1225.15 802.939 1224.18 802.609 1223.21 802.261C1225.19 794.511 1227.45 785.641 1226.84 777.711C1221.49 706.996 1184.45 632.928 1133.39 585.314Z" fill="#D7D6D2"/>
<path d="M925.978 855.386C927.587 856.767 927.798 859.883 928.203 862.253C927.456 862.868 927.923 862.62 926.729 862.831C925.756 860.673 925.998 857.83 925.978 855.386Z" fill="#F0F0E9"/>
<path d="M865.593 903.615L866.708 903.771C866.856 903.789 867.004 903.808 867.152 903.82C868.582 905.817 868.347 908.579 868.465 911.135C867.594 912.292 868.174 911.863 866.647 912.305C864.778 910.121 865.377 906.464 865.593 903.615Z" fill="#0B101A"/>
<path d="M518.976 272.427C519.784 239.888 515.845 247.562 545.892 232.208L609.009 200.37C616.006 196.853 631.159 188.3 637.22 186.279C644.833 188.607 652.849 193.469 660.072 197.095C688.485 211.359 716.83 225.728 745.172 240.136C747.41 241.274 752.669 244.034 754 246.445C756.86 254.901 755.199 281.171 755.886 288.765C772.389 279.729 806.128 253.429 795.758 230.989C788.898 216.143 762.344 214.748 748.812 213.923C762.626 208.506 775.782 206.491 789.8 212.221C808.46 219.849 813.542 240.038 804.574 256.967C794.499 275.985 774.432 289.168 756.064 298.927C755.017 306.197 755.448 316.044 755.464 323.509L755.625 365.63C755.658 370.59 757.034 386.494 753.294 388.844C740.086 397.144 725.291 403.995 711.356 411.159L659.253 437.517C651.501 441.489 644.54 446.669 636.1 448.883C629.114 444.566 598.874 427.99 591.744 426.03C571.577 436.057 548.44 438.276 526.355 437.999C481.782 437.441 449.689 395.648 490.107 360.996C484.724 373.546 477.895 388.141 483.263 401.62C497 436.112 554.489 431.114 580.768 420.614C578.455 418.279 570.698 415.031 566.965 412.974C552.454 404.976 534.959 397.36 521.199 388.45C518.62 386.78 519.092 378.918 519.012 375.414C519.693 368.428 518.954 345.75 518.891 337.642L518.976 272.427Z" fill="#000101"/>
<path d="M748.814 213.923C762.628 208.506 775.785 206.491 789.803 212.221C808.463 219.849 813.544 240.038 804.576 256.967C794.502 275.985 774.435 289.168 756.066 298.927C755.019 306.197 755.451 316.044 755.466 323.509L755.628 365.631C755.661 370.59 757.037 386.494 753.296 388.844C740.088 397.144 725.293 403.995 711.358 411.16L659.256 437.517C651.504 441.489 644.542 446.669 636.103 448.883C629.116 444.566 598.877 427.99 591.746 426.03C598.903 422.857 601.508 421.375 608.274 417.289C615.681 420.674 621.951 424.642 629.767 427.86C629.452 419.942 629.274 412.019 629.234 404.096C634.66 400.97 638.855 397.398 643.058 392.776L642.426 391.793L645.647 388.96C644.767 385.587 645.252 347.534 645.306 342.075L646.213 339.727C647.407 341.612 648.089 342.314 650.063 343.351C650.397 338.157 650.53 333.318 650.632 328.112L650.153 327.495L645.301 324.174C645.422 316.523 642.526 312.719 649.936 308.91L651.929 307.966C663.77 301.04 687.799 289.134 700.679 282.943C702.878 281.573 707.37 279.433 709.835 278.177C713.561 276.164 717.121 274.156 721.025 272.504L731.669 266.903C737.962 271.892 734.815 291.358 734.697 299.443C735.941 298.075 737.04 296.91 738.355 295.609L739.555 295.823L740.636 298.406C742.636 297.791 754.566 290.901 755.888 288.765C772.392 279.729 806.131 253.429 795.761 230.989C788.9 216.143 762.346 214.748 748.814 213.923Z" fill="#FEFDFC"/>
<path d="M756.066 298.928C755.019 306.198 755.451 316.045 755.466 323.51L755.628 365.631C755.661 370.591 757.037 386.494 753.296 388.845C740.088 397.145 725.293 403.996 711.358 411.16L659.256 437.518C651.504 441.49 644.543 446.67 636.103 448.884C629.116 444.567 598.877 427.991 591.746 426.03C598.903 422.858 601.508 421.376 608.274 417.29C615.681 420.675 621.951 424.643 629.767 427.86C629.452 419.942 629.274 412.02 629.234 404.096C634.66 400.971 638.855 397.399 643.058 392.777L642.426 391.794L645.647 388.961L647.356 389.925C648.286 393.42 648.333 399.986 649.535 402.634C650.234 401.161 650.126 400.744 650.272 399.087C650.302 405.378 649.862 419.62 650.425 425.079L653.2 424.005C657.079 422.073 660.382 420.275 664.15 418.13C666.99 417.398 685.226 407.605 688.174 405.752C689.123 402.989 693.277 397.173 695.099 394.439L696.218 392.673C699.156 388.619 704.727 377.634 707.828 372.469C710.42 367.84 712.715 364.6 715.796 360.241C717.462 358.383 730.348 336.819 732.483 333.291L734.538 329.322C736.563 325.773 736.491 325.063 739.66 322.169C739.638 319.817 739.25 314.577 740.244 312.798C740.269 310.698 740.3 310.006 740.602 307.941C742.801 304.37 751.542 301.226 756.066 298.928Z" fill="#000101"/>
<path d="M715.795 360.241C721.137 363.091 726.499 365.902 731.881 368.675L732.183 368.625L733.212 369.467L734.202 369.483C734.894 374.723 734.155 378.654 734.581 382.178L732.475 383.152L730.846 383.995C724.671 387.211 718.033 390.837 711.777 393.789C709.441 395.078 707.028 396.468 704.651 397.653C702.406 394.878 698.709 394.947 695.098 394.439L696.217 392.673C699.155 388.619 704.726 377.634 707.826 372.469C710.418 367.84 712.713 364.6 715.795 360.241Z" fill="#EBCEF8"/>
<path d="M715.793 360.241C721.135 363.091 726.497 365.902 731.879 368.675L732.181 368.625L733.21 369.467L734.2 369.483C734.892 374.723 734.153 378.654 734.579 382.178L732.473 383.152L730.844 383.995C722.994 379.856 715.859 376.217 707.824 372.469C710.416 367.84 712.711 364.6 715.793 360.241Z" fill="#C598D8"/>
<path d="M732.184 368.624L733.214 369.466L734.203 369.482C734.896 374.722 734.157 378.653 734.582 382.177L732.476 383.151C731.98 378.664 731.989 373.264 731.883 368.674L732.184 368.624Z" fill="#E9BEFB"/>
<path d="M695.098 394.438L696.217 392.673C700.832 392.915 707.368 393.065 711.777 393.789C709.441 395.077 707.028 396.467 704.651 397.653C702.406 394.878 698.709 394.946 695.098 394.438Z" fill="#FEFEFD"/>
<path d="M739.657 322.169C739.635 328.064 740.109 369.447 739.102 371.258L734.2 369.483L733.211 369.466L732.181 368.625L731.88 368.674C726.498 365.902 721.135 363.09 715.793 360.241C717.459 358.382 730.345 336.819 732.48 333.291L734.535 329.321C736.56 325.772 736.487 325.062 739.657 322.169Z" fill="#EFDBF9"/>
<path d="M732.48 333.291C732.605 344.861 732.727 357.09 732.181 368.625L731.88 368.675C726.498 365.902 721.135 363.09 715.793 360.241C717.459 358.382 730.345 336.819 732.48 333.291Z" fill="#EFDBF9"/>
<path d="M732.482 333.291L734.537 329.321C734.633 334.119 735.361 366.815 734.232 369.066L733.213 369.466L732.184 368.625C732.729 357.09 732.607 344.861 732.482 333.291Z" fill="#FEFEFD"/>
<path d="M642.422 391.793L645.643 388.96L647.352 389.924C648.282 393.42 648.329 399.985 649.531 402.633C650.23 401.16 650.122 400.744 650.268 399.086C650.298 405.378 649.858 419.619 650.421 425.078C649.161 426.179 646.373 427.183 644.701 427.886C645.142 423.919 645.741 393.732 644.685 391.868L643.054 392.776L642.422 391.793Z" fill="#EFDBF9"/>
<path d="M739.659 322.169C739.638 319.816 739.25 314.576 740.244 312.798L740.421 356.132C740.447 363.041 740.63 370.04 740.225 376.93C740.122 378.682 739.279 379.491 738.109 380.634L734.582 382.178C734.156 378.653 734.895 374.723 734.203 369.483L739.104 371.258C740.111 369.447 739.638 328.064 739.659 322.169Z" fill="#EBCEF8"/>
<path d="M695.097 394.438C698.708 394.946 702.404 394.877 704.65 397.652C699.203 400.101 693.279 403.586 688.172 405.75C689.12 402.988 693.274 397.172 695.097 394.438Z" fill="#EFDBF9"/>
<path d="M721.022 272.504L731.666 266.903C737.959 271.892 734.812 291.358 734.694 299.443L732.919 300.477C729.247 307.431 702.54 316.099 692.951 322.038C705.12 319.896 714.821 316.884 726.373 312.532C722.847 318.683 703.354 349.587 702.479 353.624C699.601 357.833 696.838 361.701 694.474 366.239C681.892 359.28 665.797 350.739 652.777 345.125L651.729 344.147C651.051 343.56 650.981 343.672 650.06 343.351C650.394 338.157 650.527 333.318 650.629 328.112L650.15 327.495L645.298 324.174C645.419 316.523 642.523 312.719 649.933 308.91L651.926 307.966C663.767 301.04 687.796 289.134 700.676 282.943C702.875 281.573 707.367 279.433 709.832 278.177C713.558 276.164 717.118 274.156 721.022 272.504Z" fill="#EBCEF8"/>
<path d="M650.628 328.113L652.364 327.806C654.094 328.41 655.423 328.683 656.744 329.933L656.875 330.43C661.763 333.153 701.098 352.243 702.477 353.625C699.6 357.833 696.837 361.702 694.473 366.24C681.891 359.281 665.796 350.739 652.775 345.126L651.728 344.147C651.05 343.56 650.98 343.673 650.059 343.351C650.393 338.158 650.526 333.319 650.628 328.113Z" fill="#C598D8"/>
<path d="M650.628 328.113L652.364 327.806C654.094 328.41 655.423 328.683 656.744 329.933L656.875 330.43C655.304 329.793 654.173 329.374 652.689 328.51L652.775 345.126L651.728 344.147C651.05 343.56 650.98 343.673 650.059 343.351C650.393 338.158 650.526 333.319 650.628 328.113Z" fill="#E9BEFB"/>
<path d="M721.023 272.504L731.667 266.903C737.96 271.892 734.813 291.358 734.695 299.443L732.92 300.477C732.112 294.406 732.478 278.777 732.488 272.295C727.734 272.825 725.822 272.745 721.023 272.504Z" fill="#FEFEFD"/>
<path d="M649.933 308.91C650.165 315.397 650.308 320.977 650.15 327.495L645.298 324.174C645.419 316.523 642.523 312.719 649.933 308.91Z" fill="#EBCEF8"/>
<path d="M649.934 308.911L651.926 307.967C652.333 309.267 652.229 308.585 652.203 310.017C653.529 311.062 653.702 310.924 655.408 311.25C653.697 312.703 652.749 312.928 652.671 315.11C652.555 318.375 653.049 324.772 652.366 327.806L650.63 328.113L650.151 327.496C650.309 320.978 650.166 315.398 649.934 308.911Z" fill="#FEFEFD"/>
<path d="M700.676 282.943C702.875 281.573 707.367 279.433 709.832 278.177C710.71 279.426 710.495 278.733 710.483 280.253L711.337 280.937L709.846 281.072L709.079 282.034C710.145 282.095 711.168 282.187 712.213 282.414C708.128 283.07 704.8 282.952 700.676 282.943Z" fill="#EFDBF9"/>
<path d="M645.303 342.076L646.21 339.728C647.404 341.613 648.086 342.315 650.06 343.351C650.981 343.673 651.051 343.56 651.729 344.147L652.777 345.126C665.797 350.739 681.892 359.281 694.474 366.24C685.265 380.427 676.352 398.422 666.587 411.69C662.429 411.611 652.142 410.305 652.766 417.324C652.912 418.967 653.12 420.143 653.959 421.565C656.711 421.6 659.831 419.349 661.987 417.691L662.251 415.919C663.678 416.559 663.072 416.325 664.147 418.13C660.379 420.275 657.076 422.073 653.197 424.005L650.422 425.079C649.859 419.619 650.299 405.378 650.269 399.087C650.122 400.744 650.231 401.16 649.532 402.634C648.33 399.986 648.283 393.42 647.353 389.925L645.644 388.961C644.764 385.588 645.248 347.534 645.303 342.076Z" fill="#EBCEF8"/>
<path d="M645.303 342.076L646.21 339.728C647.404 341.613 648.086 342.315 650.06 343.351C650.981 343.673 651.051 343.56 651.729 344.147L650.563 344.799C649.949 348.309 650.246 351.88 650.224 355.441C650.135 369.938 650.774 384.609 650.269 399.087C650.122 400.744 650.231 401.16 649.532 402.634C648.33 399.986 648.283 393.42 647.353 389.925L645.644 388.961C644.764 385.588 645.248 347.534 645.303 342.076Z" fill="#EBCEF8"/>
<path d="M650.268 399.087C650.773 384.609 650.134 369.938 650.223 355.441C650.245 351.88 649.948 348.309 650.562 344.799L651.728 344.147L652.776 345.126C652.799 368.015 652.381 390.894 652.817 413.777C652.884 417.254 652.853 420.536 653.196 424.005L650.421 425.079C649.858 419.619 650.298 405.378 650.268 399.087Z" fill="#FEFEFD"/>
<path d="M596.45 338.697C600.59 331.613 611.208 308.002 614.698 304.085C619.152 306.223 625.4 309.002 629.469 311.541C629.513 339.125 628.612 372.76 629.762 399.632C633.719 397.085 638.332 393.95 642.423 391.793L643.056 392.776C638.852 397.399 634.657 400.97 629.231 404.096C629.272 412.02 629.45 419.942 629.764 427.86C621.948 424.642 615.679 420.675 608.271 417.29C601.506 421.376 598.901 422.858 591.744 426.03C571.577 436.058 548.44 438.277 526.355 438C481.782 437.442 449.689 395.649 490.107 360.996C484.724 373.547 477.895 388.141 483.263 401.62C497 436.113 554.489 431.114 580.768 420.614C585.107 420.879 596.782 415.673 600.8 413.467C589.808 408.221 576.103 401.002 565.545 395.072L543.946 383.912L542.592 383.4C543.812 379.131 543.175 373.37 543.08 368.684L543.272 368.17C547.84 366.308 557.037 361.271 561.743 358.878L594.912 342.215C595.65 340.89 594.757 340.153 596.45 338.697Z" fill="#FEFEFD"/>
<path d="M594.914 342.215C593.357 347.103 587.458 357.41 584.938 363.391L584.225 363.903C578.941 372.505 572.083 390.505 565.547 395.072L543.948 383.912L542.594 383.4C543.814 379.132 543.177 373.37 543.081 368.684L543.274 368.17C547.842 366.309 557.039 361.271 561.744 358.878L594.914 342.215Z" fill="#C598D8"/>
<path d="M584.223 363.903C578.938 372.506 572.08 390.506 565.544 395.072L543.945 383.912C557.245 376.99 570.673 370.32 584.223 363.903Z" fill="#EFDBF9"/>
<path d="M596.451 338.696L596.517 340.449C599.868 341.284 618.334 330.419 623.473 328.095L623.381 342.714C611.331 350.885 597.494 355.268 584.938 363.39C587.458 357.409 593.357 347.102 594.913 342.214C595.651 340.89 594.758 340.153 596.451 338.696Z" fill="#EFDBF9"/>
<path d="M576.705 284.26C580.973 286.513 590.907 291.361 594.313 293.577C598.285 295.26 611.146 301.686 614.697 304.085C611.207 308.002 600.588 331.612 596.449 338.696C594.756 340.153 595.648 340.89 594.91 342.214L561.741 358.878C557.036 361.271 547.839 366.308 543.271 368.17C543.054 362.865 543.233 356.44 543.238 351.049C544.305 345.296 566.934 303.843 571.15 294.216C572.618 289.88 573.608 287.61 576.705 284.26Z" fill="#EBCEF8"/>
<path d="M576.707 284.26C580.976 286.513 590.909 291.361 594.315 293.577C589.206 293.903 573.257 293.282 571.152 294.216C572.62 289.88 573.61 287.61 576.707 284.26Z" fill="#EFDBF9"/>
<path d="M534.568 262.811C548.711 269.769 562.758 276.919 576.706 284.26C573.61 287.61 572.62 289.88 571.152 294.216C566.935 303.843 544.307 345.296 543.239 351.048C543.235 356.44 543.056 362.864 543.272 368.169L543.08 368.683C541.511 369.297 537.294 370.003 535.438 370.37C535.388 367.324 535.29 366.277 534.716 363.288L534.695 358.287C533.831 327.718 534.561 293.647 534.568 262.811Z" fill="#FEFEFD"/>
<path d="M543.24 351.049C543.235 356.44 543.056 362.865 543.273 368.17L543.08 368.684C541.511 369.298 537.294 370.004 535.439 370.371C535.388 367.325 535.291 366.278 534.716 363.289L534.695 358.288C536.094 363.134 535.666 363.95 536.233 368.696C537.949 369.25 537.102 369.215 538.817 368.538C540.754 363.874 536.442 357.816 540.889 354.16C541.874 353.351 542.579 352.139 543.24 351.049Z" fill="#EFDBF9"/>
<path d="M731.668 266.904L740.388 262.022C740.402 273.643 740.112 286.918 740.635 298.407L739.554 295.824L738.354 295.61C737.04 296.911 735.94 298.075 734.696 299.443C734.814 291.358 737.961 271.892 731.668 266.904Z" fill="#EBCEF8"/>
<path d="M534.715 363.288C535.29 366.277 535.387 367.324 535.438 370.37C537.293 370.003 541.51 369.297 543.079 368.683C543.175 373.369 543.812 379.131 542.591 383.4C532.003 378.569 534.404 374.116 534.715 363.288Z" fill="#EBCEF8"/>
<path d="M645.3 324.174L650.152 327.495L650.632 328.112C650.53 333.318 650.396 338.157 650.062 343.351C648.088 342.314 647.407 341.612 646.212 339.727L645.305 342.076C645.068 336.635 645.286 329.725 645.3 324.174Z" fill="#C598D8"/>
<path d="M637.642 202.568C638.695 203.221 642.007 205.177 642.73 205.88C659.835 213.825 676.655 222.72 693.507 231.204C705.925 237.457 718.441 243.426 730.562 250.244C701.795 264.771 673.144 279.528 644.614 294.514L637.729 298.355C634.627 296.858 632.028 295.652 629.078 293.833C617.52 287.448 605.457 281.873 593.83 275.698C577.327 266.935 561.033 258.426 544.141 250.404C546.606 248.801 550.109 246.94 552.797 245.618C579.216 232.627 605.427 218.296 632.12 205.954C634.3 204.325 635.21 203.814 637.642 202.568Z" fill="#FEFEFD"/>
<path d="M632.12 205.953C632.481 207.973 630.044 216.173 630.003 220.016C629.833 235.803 630.12 251.645 629.859 267.417C629.241 273.022 630.608 290.973 629.078 293.833C617.52 287.447 605.457 281.872 593.83 275.697C577.327 266.934 561.033 258.425 544.141 250.403C546.606 248.8 550.109 246.939 552.797 245.617C579.216 232.626 605.427 218.295 632.12 205.953Z" fill="#FEFEFD"/>
<path d="M637.646 202.568C638.699 203.221 642.011 205.177 642.734 205.88C643.209 209.076 642.9 213.883 644.182 215.626C645 221.937 644.768 238.549 644.647 245.745C644.421 259.138 645.019 274.247 644.481 287.464L644.663 288.131L644.618 294.514L637.733 298.355C634.631 296.858 632.032 295.652 629.082 293.833C630.612 290.974 629.245 273.023 629.863 267.418C630.124 251.646 629.837 235.804 630.007 220.017C630.048 216.174 632.485 207.974 632.124 205.954C634.304 204.325 635.214 203.814 637.646 202.568Z" fill="#EBCEF8"/>
<path d="M629.863 267.417L629.989 268.512C630.733 275.477 628.127 287.139 633.141 292.73C635.331 295.171 641.593 292.977 643.652 291.054C643.981 290.117 644.379 289.068 644.663 288.13L644.618 294.513L637.733 298.354C634.631 296.857 632.032 295.651 629.082 293.833C630.612 290.973 629.245 273.022 629.863 267.417Z" fill="#EFDBF9"/>
<path d="M717.503 144.404C720.468 147.14 721.422 156.543 723.557 160.554C727.441 167.851 737.372 170.965 744.825 173.199C726.653 178.345 723.128 183.477 718.852 201.288L718.263 201.892L717.598 201.664C714.139 184.058 708.558 179.111 692.379 173.039C710.75 167.054 713.05 162.723 717.503 144.404Z" fill="#FEFEFD"/>
<path d="M519.014 375.415L517.915 374.838C517.69 372.793 517.586 370.888 517.469 368.834L516.576 368.211L516.755 367.82C515.909 370.133 515.011 374.162 513.624 375.408C512.733 373.1 511.851 265.079 513.013 260.722C513.197 260.877 513.381 261.033 513.565 261.188C512.837 265.827 514.841 278.825 515.88 282.073L516.732 282.337C517.402 281.396 517.934 275.211 518.978 272.428L518.892 337.642C518.956 345.75 519.695 368.429 519.014 375.415Z" fill="#827C83"/>
<path d="M467.269 289.283C468.052 290.379 467.949 290.02 468.299 291.252C472.785 307.058 473.298 308.035 489.478 313.748C476.222 318.658 470.283 321.571 468.289 336.834C465.98 335.592 466.286 331.037 464.83 328.029C460.583 319.254 454.605 317.029 446.5 313.55C461.319 308.996 464.237 303.971 467.269 289.283Z" fill="#FEFEFD"/>
<path d="M589.121 448.501C590.799 450.561 592.961 458.579 595.137 461.776C598.769 467.116 603.514 467.767 609.386 469.27C594.645 475.737 595.943 474.061 590.308 489.42C589.859 488.818 587.659 483.688 587.443 482.902C584.927 473.745 579.455 472.98 570.66 468.973C584.715 465.093 586.231 462.362 589.121 448.501Z" fill="#FEFEFD"/>
<path d="M492.314 258.829C496.757 257.174 501.699 259.446 503.336 263.895C504.974 268.345 502.683 273.277 498.228 274.897C493.796 276.509 488.896 274.234 487.267 269.808C485.639 265.383 487.895 260.474 492.314 258.829Z" fill="#FEFEFD"/>
<path d="M685.942 455.32C690.459 454.05 695.153 456.674 696.438 461.187C697.723 465.7 695.116 470.402 690.607 471.703C686.077 473.01 681.346 470.388 680.054 465.852C678.763 461.317 681.402 456.595 685.942 455.32Z" fill="#FEFEFD"/>
<path d="M735.613 433.191C735.581 435.581 735.162 434.91 736.12 436.566L737.595 436.313C740.176 433.662 740.333 434.3 741.101 431.221C744.133 437.429 747.045 437.954 753.389 440.698C750.589 441.592 747.889 442.466 745.05 443.245C742.076 442.815 740.138 442.06 737.63 443.087C736.411 444.898 736.851 446.61 736.989 448.89C733.397 443.324 730.226 442.611 724.195 440.146C729.764 438.036 731.306 437.56 735.613 433.191Z" fill="#FDFEFA"/>
<path d="M782.41 306.78C785.618 305.922 788.925 307.784 789.854 310.972C790.782 314.161 788.991 317.508 785.824 318.505C783.713 319.169 781.407 318.64 779.797 317.12C778.188 315.601 777.527 313.329 778.069 311.183C778.612 309.037 780.272 307.353 782.41 306.78ZM786.717 315.751C787.858 313.941 788.295 313.534 788.455 311.371C787.5 309.286 788.241 310.03 786.152 309.07L786.398 315.558L786.717 315.751Z" fill="#FEFEFD"/>
<path d="M786.152 309.07C788.241 310.029 787.5 309.286 788.455 311.371C788.295 313.534 787.858 313.941 786.717 315.751L786.398 315.558L786.152 309.07Z" fill="#FEFEFD"/>
<path d="M772.368 175.484C774.009 174.878 775.85 175.203 777.185 176.334C778.519 177.465 779.142 179.227 778.814 180.946C778.485 182.664 777.257 184.072 775.6 184.632C773.086 185.481 770.357 184.153 769.474 181.651C768.59 179.15 769.879 176.403 772.368 175.484Z" fill="#FEFEFD"/>
<path d="M515.525 457.859C517.181 457.198 519.067 457.5 520.435 458.644C521.803 459.789 522.432 461.592 522.072 463.34C521.713 465.087 520.423 466.496 518.714 467.008C516.229 467.751 513.598 466.408 512.744 463.959C511.89 461.509 513.115 458.821 515.525 457.859Z" fill="#FEFEFD"/>
<path d="M596.407 132.028C598.655 132.563 599.011 132.773 599.499 134.822C598.26 138.619 594.698 141.01 591.593 143.657C589.092 143.252 590.115 143.785 588.345 142.145L588.32 140.472C590.212 136.575 592.964 134.523 596.407 132.028Z" fill="#FEFEFD"/>
<path d="M558.46 132.188C564.542 132.746 569.33 137.541 568.424 143.84C563.2 143.416 557.684 137.625 558.46 132.188Z" fill="#FEFEFD"/>
<path d="M587.988 163.109C593.976 163.068 599.38 167.988 598.992 174.185C593.449 174.079 588.366 168.409 587.988 163.109Z" fill="#FEFEFD"/>
<path d="M496.807 340.267C499.062 339.315 501.663 340.358 502.635 342.605C503.607 344.852 502.586 347.462 500.348 348.453C498.082 349.456 495.433 348.419 494.45 346.145C493.466 343.871 494.525 341.232 496.807 340.267Z" fill="#FEFEFD"/>
<path d="M565.017 163.184C567.557 163.24 566.588 162.813 568.404 163.899L568.559 165.384C567.246 168.413 564.531 171.047 562.284 173.583C560.643 174.197 561.214 174.013 559.363 174.028L558.62 173.293C558.122 169.209 562.169 165.52 565.017 163.184Z" fill="#FEFEFD"/>
<path d="M553.293 150.552C553.467 150.547 553.64 150.542 553.814 150.538L554.682 150.53C557.539 150.485 563.775 150.257 563.984 154.183C562.509 155.361 562.557 155.093 560.547 155.583C557.54 155.649 550.52 156.087 549.824 152.335C551.187 150.93 551.273 151.18 553.293 150.552Z" fill="#FEFEFD"/>
<path d="M577.722 168.081C583.033 170.807 581.558 178.463 579.942 183.008C574.352 180.751 575.742 172.427 577.722 168.081Z" fill="#FEFEFD"/>
<path d="M596.15 150.589C599.395 150.436 604.866 149.989 606.986 152.661C606.113 154.545 606.273 154.005 604.175 155.313C600.779 155.67 595.455 156.309 593.707 152.611C594.763 150.982 594.251 151.573 596.15 150.589Z" fill="#FEFEFD"/>
<path d="M577.889 123.861C583.559 126.927 581.072 133.471 579.399 138.369C574.641 135.902 575.819 127.818 577.889 123.861Z" fill="#FEFEFD"/>
<path d="M736.992 448.891C736.854 446.611 736.414 444.899 737.633 443.088C740.141 442.061 742.079 442.816 745.053 443.245C740.743 447.374 740.53 449.779 738.882 455.487C738.496 454.237 737.057 449.915 736.992 448.891Z" fill="#FEFEFD"/>
<path d="M738.487 424.24L741.099 431.222C740.331 434.301 740.173 433.663 737.593 436.314L736.118 436.566C735.16 434.911 735.579 435.582 735.611 433.191C736.591 430.215 737.55 427.231 738.487 424.24Z" fill="#FEFEFD"/>
</svg>
